# xmcd
#
# Track frame offsets: 
#        150
#        12010
#        23515
#        34653
#        45351
#        55806
#        67459
#        78041
#        87282
#
# Disc length: 1333 seconds
#
# Revision: 0
# Processed by: cddbd v1.4PL0 Copyright (c) Steve Scherf et al.
# Submitted via: ExactAudioCopy v0.95a3
#
DISCID=5f053309
DTITLE=Waylon Jennings - The Dark Side of Fame
DYEAR=1976
DGENRE=Country
TTITLE0=The Dark Side of Fame
TTITLE1=Yes, Virginia
TTITLE2=Dream Baby (How Long Must I Dream)
TTITLE3=You Beat All I Ever Saw
TTITLE4=She Loves Me (She Don't Love You)
TTITLE5=Born To Love You
TTITLE6=Down Came the World
TTITLE7=John's Back in Town
TTITLE8=Listen, They're Playing My Song
EXTD=
EXTT0=
EXTT1=
EXTT2=
EXTT3=
EXTT4=
EXTT5=
EXTT6=
EXTT7=
EXTT8=
PLAYORDER=
